M48
; DRILL file {KiCad 7.0.8} date Wed Jul 17 11:45:05 2024
; FORMAT={-:-/ absolute / inch / decimal}
; #@! TF.CreationDate,2024-07-17T11:45:05-04:00
; #@! TF.GenerationSoftware,Kicad,Pcbnew,7.0.8
; #@! TF.FileFunction,Plated,1,2,PTH
FMAT,2
INCH
; #@! TA.AperFunction,Plated,PTH,ViaDrill
T1C0.0150
; #@! TA.AperFunction,Plated,PTH,ComponentDrill
T2C0.0315
; #@! TA.AperFunction,Plated,PTH,ComponentDrill
T3C0.0354
; #@! TA.AperFunction,Plated,PTH,ComponentDrill
T4C0.0433
%
G90
G05
T1
X4.1Y-3.46
X4.26Y-4.0125
X4.27Y-4.77
X4.27Y-5.52
X4.37Y-1.74
X4.42Y-4.22
X4.42Y-4.97
X4.42Y-5.73
X4.44Y-3.56
X5.02Y-4.02
X5.02Y-4.77
X5.02Y-5.52
X5.17Y-4.22
X5.17Y-4.98
X5.17Y-5.72
X5.77Y-4.02
X5.77Y-4.77
X5.77Y-5.52
X5.9Y-1.73
X5.92Y-4.23
X5.92Y-4.99
X5.92Y-5.73
X6.52Y-4.02
X6.52Y-4.77
X6.52Y-5.52
X6.62Y-4.23
X6.67Y-4.97
X6.67Y-5.73
X6.75Y-4.89
T2
X4.22Y-3.75
X4.52Y-3.75
X4.61Y-1.43
X4.61Y-2.03
X4.71Y-1.43
X4.71Y-2.03
X4.81Y-1.43
X4.81Y-2.03
X4.91Y-1.43
X4.91Y-2.03
X4.97Y-3.75
X5.01Y-1.43
X5.01Y-2.03
X5.11Y-1.43
X5.11Y-2.03
X5.21Y-1.43
X5.21Y-2.03
X5.27Y-3.75
X5.31Y-1.43
X5.31Y-2.03
X5.41Y-1.43
X5.41Y-2.03
X5.51Y-1.43
X5.51Y-2.03
X5.61Y-1.43
X5.61Y-2.03
X5.71Y-1.43
X5.71Y-2.03
X5.72Y-3.75
X5.81Y-1.43
X5.81Y-2.03
X5.91Y-1.43
X5.91Y-2.03
X6.01Y-1.43
X6.01Y-2.03
X6.02Y-3.75
X6.11Y-1.43
X6.11Y-2.03
X6.21Y-1.43
X6.21Y-2.03
X6.31Y-1.43
X6.31Y-2.03
X6.41Y-1.43
X6.41Y-2.03
X6.47Y-3.75
X6.51Y-1.43
X6.51Y-2.03
X6.61Y-1.43
X6.61Y-2.03
X6.71Y-1.43
X6.71Y-2.03
X6.77Y-3.75
X6.81Y-1.43
X6.81Y-2.03
X6.91Y-1.43
X6.91Y-2.03
T3
X4.1Y-2.58
X4.1Y-2.68
X4.1Y-2.78
X4.1Y-2.88
X4.1Y-2.98
X4.1Y-3.08
X4.1Y-3.18
X4.1Y-3.28
T4
X6.6016Y-2.2444
X6.6016Y-2.8153
X6.6016Y-3.0444
X6.6016Y-3.6153
X6.7Y-2.8153
X6.7Y-3.6153
X6.7984Y-2.2444
X6.7984Y-2.8153
X6.7984Y-3.0444
X6.7984Y-3.6153
T0
M30
