%TF.GenerationSoftware,KiCad,Pcbnew,7.0.8*%
%TF.CreationDate,2024-07-17T11:45:19-04:00*%
%TF.ProjectId,analog-macropad,616e616c-6f67-42d6-9d61-63726f706164,v01*%
%TF.SameCoordinates,Original*%
%TF.FileFunction,Soldermask,Top*%
%TF.FilePolarity,Negative*%
%FSLAX46Y46*%
G04 Gerber Fmt 4.6, Leading zero omitted, Abs format (unit mm)*
G04 Created by KiCad (PCBNEW 7.0.8) date 2024-07-17 11:45:19*
%MOMM*%
%LPD*%
G01*
G04 APERTURE LIST*
G04 Aperture macros list*
%AMRoundRect*
0 Rectangle with rounded corners*
0 $1 Rounding radius*
0 $2 $3 $4 $5 $6 $7 $8 $9 X,Y pos of 4 corners*
0 Add a 4 corners polygon primitive as box body*
4,1,4,$2,$3,$4,$5,$6,$7,$8,$9,$2,$3,0*
0 Add four circle primitives for the rounded corners*
1,1,$1+$1,$2,$3*
1,1,$1+$1,$4,$5*
1,1,$1+$1,$6,$7*
1,1,$1+$1,$8,$9*
0 Add four rect primitives between the rounded corners*
20,1,$1+$1,$2,$3,$4,$5,0*
20,1,$1+$1,$4,$5,$6,$7,0*
20,1,$1+$1,$6,$7,$8,$9,0*
20,1,$1+$1,$8,$9,$2,$3,0*%
G04 Aperture macros list end*
%ADD10C,1.854000*%
%ADD11RoundRect,0.102000X-0.825000X-0.825000X0.825000X-0.825000X0.825000X0.825000X-0.825000X0.825000X0*%
%ADD12C,1.600000*%
%ADD13O,1.600000X1.600000*%
%ADD14RoundRect,0.175750X-0.840950X-0.221250X0.840950X-0.221250X0.840950X0.221250X-0.840950X0.221250X0*%
%ADD15C,1.512000*%
%ADD16C,1.524000*%
G04 APERTURE END LIST*
D10*
%TO.C,RS1*%
X167680000Y-71508000D03*
X170180000Y-71508000D03*
X172680000Y-71508000D03*
D11*
X167680000Y-57008000D03*
D10*
X172680000Y-57008000D03*
%TD*%
D12*
%TO.C,10k*%
X152908000Y-95250000D03*
D13*
X145288000Y-95250000D03*
%TD*%
D14*
%TO.C,U8*%
X147828300Y-103698000D03*
X147828300Y-105598000D03*
X150367700Y-104648000D03*
%TD*%
%TO.C,U13*%
X166878300Y-141798000D03*
X166878300Y-143698000D03*
X169417700Y-142748000D03*
%TD*%
%TO.C,U7*%
X128778300Y-141798000D03*
X128778300Y-143698000D03*
X131317700Y-142748000D03*
%TD*%
D10*
%TO.C,RS2*%
X167680000Y-91828000D03*
X170180000Y-91828000D03*
X172680000Y-91828000D03*
D11*
X167680000Y-77328000D03*
D10*
X172680000Y-77328000D03*
%TD*%
D14*
%TO.C,U3*%
X109728300Y-122748000D03*
X109728300Y-124648000D03*
X112267700Y-123698000D03*
%TD*%
%TO.C,U10*%
X147828300Y-141798000D03*
X147828300Y-143698000D03*
X150367700Y-142748000D03*
%TD*%
%TO.C,U9*%
X147828300Y-122748000D03*
X147828300Y-124648000D03*
X150367700Y-123698000D03*
%TD*%
D15*
%TO.C,U1*%
X172974000Y-36322000D03*
X170434000Y-36322000D03*
X167894000Y-36322000D03*
X165354000Y-36322000D03*
X139954000Y-36322000D03*
X170434000Y-51562000D03*
X162814000Y-36322000D03*
X160274000Y-36322000D03*
X157734000Y-36322000D03*
X155194000Y-36322000D03*
X152654000Y-36322000D03*
X150114000Y-36322000D03*
X147574000Y-36322000D03*
X145034000Y-36322000D03*
X142494000Y-36322000D03*
X142494000Y-51562000D03*
X145034000Y-51562000D03*
X147574000Y-51562000D03*
X150114000Y-51562000D03*
X152654000Y-51562000D03*
X155194000Y-51562000D03*
X157734000Y-51562000D03*
X160274000Y-51562000D03*
X162814000Y-51562000D03*
X165354000Y-51562000D03*
X167894000Y-51562000D03*
X137414000Y-36322000D03*
X134874000Y-36322000D03*
X132334000Y-36322000D03*
X129794000Y-36322000D03*
X127254000Y-36322000D03*
X124714000Y-36322000D03*
X122174000Y-36322000D03*
X119634000Y-36322000D03*
X117094000Y-36322000D03*
X117094000Y-51562000D03*
X119634000Y-51562000D03*
X122174000Y-51562000D03*
X124714000Y-51562000D03*
X127254000Y-51562000D03*
X129794000Y-51562000D03*
X132334000Y-51562000D03*
X134874000Y-51562000D03*
X137414000Y-51562000D03*
X175514000Y-36322000D03*
X139954000Y-51562000D03*
X172974000Y-51562000D03*
X175514000Y-51562000D03*
%TD*%
D12*
%TO.C,10k*%
X114808000Y-95250000D03*
D13*
X107188000Y-95250000D03*
%TD*%
D14*
%TO.C,U12*%
X166878300Y-122748000D03*
X166878300Y-124648000D03*
X169417700Y-123698000D03*
%TD*%
D16*
%TO.C,U14*%
X104140000Y-65532000D03*
X104140000Y-68072000D03*
X104140000Y-70612000D03*
X104140000Y-73152000D03*
X104140000Y-75692000D03*
X104140000Y-78232000D03*
X104140000Y-80772000D03*
X104140000Y-83312000D03*
%TD*%
D12*
%TO.C,10k*%
X133858000Y-95250000D03*
D13*
X126238000Y-95250000D03*
%TD*%
D14*
%TO.C,U2*%
X109729300Y-103698000D03*
X109729300Y-105598000D03*
X112268700Y-104648000D03*
%TD*%
%TO.C,U4*%
X109728300Y-141798000D03*
X109728300Y-143698000D03*
X112267700Y-142748000D03*
%TD*%
%TO.C,U6*%
X128778300Y-122748000D03*
X128778300Y-124648000D03*
X131317700Y-123698000D03*
%TD*%
D12*
%TO.C,10k*%
X171958000Y-95250000D03*
D13*
X164338000Y-95250000D03*
%TD*%
D14*
%TO.C,U11*%
X166878300Y-103698000D03*
X166878300Y-105598000D03*
X169417700Y-104648000D03*
%TD*%
%TO.C,U5*%
X128778300Y-103698000D03*
X128778300Y-105598000D03*
X131317700Y-104648000D03*
%TD*%
M02*
