%TF.GenerationSoftware,KiCad,Pcbnew,7.0.8*%
%TF.CreationDate,2024-07-17T11:45:19-04:00*%
%TF.ProjectId,analog-macropad,616e616c-6f67-42d6-9d61-63726f706164,v01*%
%TF.SameCoordinates,Original*%
%TF.FileFunction,Legend,Bot*%
%TF.FilePolarity,Positive*%
%FSLAX46Y46*%
G04 Gerber Fmt 4.6, Leading zero omitted, Abs format (unit mm)*
G04 Created by KiCad (PCBNEW 7.0.8) date 2024-07-17 11:45:19*
%MOMM*%
%LPD*%
G01*
G04 APERTURE LIST*
%ADD10C,0.127000*%
%ADD11C,0.101600*%
%ADD12C,0.203200*%
%ADD13C,0.200000*%
G04 APERTURE END LIST*
D10*
%TO.C,U8*%
X148449000Y-103188000D02*
X149134000Y-103188000D01*
X148449000Y-104033000D02*
X148449000Y-103188000D01*
X148449000Y-106108000D02*
X148449000Y-105263000D01*
X149134000Y-106108000D02*
X148449000Y-106108000D01*
D11*
X139574000Y-95123000D02*
X158624000Y-95123000D01*
X158624000Y-95123000D02*
X158624000Y-114173000D01*
X158624000Y-114173000D02*
X139574000Y-114173000D01*
X139574000Y-114173000D02*
X139574000Y-95123000D01*
D12*
X142114000Y-97663000D02*
X156084000Y-97663000D01*
X156084000Y-97663000D02*
X156084000Y-111633000D01*
X156084000Y-111633000D02*
X142114000Y-111633000D01*
X142114000Y-111633000D02*
X142114000Y-97663000D01*
D13*
X151814200Y-103698000D02*
G75*
G03*
X151814200Y-103698000I-100000J0D01*
G01*
D10*
%TO.C,U13*%
X167499000Y-141288000D02*
X168184000Y-141288000D01*
X167499000Y-142133000D02*
X167499000Y-141288000D01*
X167499000Y-144208000D02*
X167499000Y-143363000D01*
X168184000Y-144208000D02*
X167499000Y-144208000D01*
D11*
X158624000Y-133223000D02*
X177674000Y-133223000D01*
X177674000Y-133223000D02*
X177674000Y-152273000D01*
X177674000Y-152273000D02*
X158624000Y-152273000D01*
X158624000Y-152273000D02*
X158624000Y-133223000D01*
D12*
X161164000Y-135763000D02*
X175134000Y-135763000D01*
X175134000Y-135763000D02*
X175134000Y-149733000D01*
X175134000Y-149733000D02*
X161164000Y-149733000D01*
X161164000Y-149733000D02*
X161164000Y-135763000D01*
D13*
X170864200Y-141798000D02*
G75*
G03*
X170864200Y-141798000I-100000J0D01*
G01*
D10*
%TO.C,U7*%
X129399000Y-141288000D02*
X130084000Y-141288000D01*
X129399000Y-142133000D02*
X129399000Y-141288000D01*
X129399000Y-144208000D02*
X129399000Y-143363000D01*
X130084000Y-144208000D02*
X129399000Y-144208000D01*
D11*
X120524000Y-133223000D02*
X139574000Y-133223000D01*
X139574000Y-133223000D02*
X139574000Y-152273000D01*
X139574000Y-152273000D02*
X120524000Y-152273000D01*
X120524000Y-152273000D02*
X120524000Y-133223000D01*
D12*
X123064000Y-135763000D02*
X137034000Y-135763000D01*
X137034000Y-135763000D02*
X137034000Y-149733000D01*
X137034000Y-149733000D02*
X123064000Y-149733000D01*
X123064000Y-149733000D02*
X123064000Y-135763000D01*
D13*
X132764200Y-141798000D02*
G75*
G03*
X132764200Y-141798000I-100000J0D01*
G01*
D10*
%TO.C,U3*%
X110349000Y-122238000D02*
X111034000Y-122238000D01*
X110349000Y-123083000D02*
X110349000Y-122238000D01*
X110349000Y-125158000D02*
X110349000Y-124313000D01*
X111034000Y-125158000D02*
X110349000Y-125158000D01*
D11*
X101474000Y-114173000D02*
X120524000Y-114173000D01*
X120524000Y-114173000D02*
X120524000Y-133223000D01*
X120524000Y-133223000D02*
X101474000Y-133223000D01*
X101474000Y-133223000D02*
X101474000Y-114173000D01*
D12*
X104014000Y-116713000D02*
X117984000Y-116713000D01*
X117984000Y-116713000D02*
X117984000Y-130683000D01*
X117984000Y-130683000D02*
X104014000Y-130683000D01*
X104014000Y-130683000D02*
X104014000Y-116713000D01*
D13*
X113714200Y-122748000D02*
G75*
G03*
X113714200Y-122748000I-100000J0D01*
G01*
D10*
%TO.C,U10*%
X148449000Y-141288000D02*
X149134000Y-141288000D01*
X148449000Y-142133000D02*
X148449000Y-141288000D01*
X148449000Y-144208000D02*
X148449000Y-143363000D01*
X149134000Y-144208000D02*
X148449000Y-144208000D01*
D11*
X139574000Y-133223000D02*
X158624000Y-133223000D01*
X158624000Y-133223000D02*
X158624000Y-152273000D01*
X158624000Y-152273000D02*
X139574000Y-152273000D01*
X139574000Y-152273000D02*
X139574000Y-133223000D01*
D12*
X142114000Y-135763000D02*
X156084000Y-135763000D01*
X156084000Y-135763000D02*
X156084000Y-149733000D01*
X156084000Y-149733000D02*
X142114000Y-149733000D01*
X142114000Y-149733000D02*
X142114000Y-135763000D01*
D13*
X151814200Y-141798000D02*
G75*
G03*
X151814200Y-141798000I-100000J0D01*
G01*
D10*
%TO.C,U9*%
X148449000Y-122238000D02*
X149134000Y-122238000D01*
X148449000Y-123083000D02*
X148449000Y-122238000D01*
X148449000Y-125158000D02*
X148449000Y-124313000D01*
X149134000Y-125158000D02*
X148449000Y-125158000D01*
D11*
X139574000Y-114173000D02*
X158624000Y-114173000D01*
X158624000Y-114173000D02*
X158624000Y-133223000D01*
X158624000Y-133223000D02*
X139574000Y-133223000D01*
X139574000Y-133223000D02*
X139574000Y-114173000D01*
D12*
X142114000Y-116713000D02*
X156084000Y-116713000D01*
X156084000Y-116713000D02*
X156084000Y-130683000D01*
X156084000Y-130683000D02*
X142114000Y-130683000D01*
X142114000Y-130683000D02*
X142114000Y-116713000D01*
D13*
X151814200Y-122748000D02*
G75*
G03*
X151814200Y-122748000I-100000J0D01*
G01*
D10*
%TO.C,U12*%
X167499000Y-122238000D02*
X168184000Y-122238000D01*
X167499000Y-123083000D02*
X167499000Y-122238000D01*
X167499000Y-125158000D02*
X167499000Y-124313000D01*
X168184000Y-125158000D02*
X167499000Y-125158000D01*
D11*
X158624000Y-114173000D02*
X177674000Y-114173000D01*
X177674000Y-114173000D02*
X177674000Y-133223000D01*
X177674000Y-133223000D02*
X158624000Y-133223000D01*
X158624000Y-133223000D02*
X158624000Y-114173000D01*
D12*
X161164000Y-116713000D02*
X175134000Y-116713000D01*
X175134000Y-116713000D02*
X175134000Y-130683000D01*
X175134000Y-130683000D02*
X161164000Y-130683000D01*
X161164000Y-130683000D02*
X161164000Y-116713000D01*
D13*
X170864200Y-122748000D02*
G75*
G03*
X170864200Y-122748000I-100000J0D01*
G01*
D10*
%TO.C,U2*%
X110350000Y-103188000D02*
X111035000Y-103188000D01*
X110350000Y-104033000D02*
X110350000Y-103188000D01*
X110350000Y-106108000D02*
X110350000Y-105263000D01*
X111035000Y-106108000D02*
X110350000Y-106108000D01*
D11*
X101475000Y-95123000D02*
X120525000Y-95123000D01*
X120525000Y-95123000D02*
X120525000Y-114173000D01*
X120525000Y-114173000D02*
X101475000Y-114173000D01*
X101475000Y-114173000D02*
X101475000Y-95123000D01*
D12*
X104015000Y-97663000D02*
X117985000Y-97663000D01*
X117985000Y-97663000D02*
X117985000Y-111633000D01*
X117985000Y-111633000D02*
X104015000Y-111633000D01*
X104015000Y-111633000D02*
X104015000Y-97663000D01*
D13*
X113715200Y-103698000D02*
G75*
G03*
X113715200Y-103698000I-100000J0D01*
G01*
D10*
%TO.C,U4*%
X110349000Y-141288000D02*
X111034000Y-141288000D01*
X110349000Y-142133000D02*
X110349000Y-141288000D01*
X110349000Y-144208000D02*
X110349000Y-143363000D01*
X111034000Y-144208000D02*
X110349000Y-144208000D01*
D11*
X101474000Y-133223000D02*
X120524000Y-133223000D01*
X120524000Y-133223000D02*
X120524000Y-152273000D01*
X120524000Y-152273000D02*
X101474000Y-152273000D01*
X101474000Y-152273000D02*
X101474000Y-133223000D01*
D12*
X104014000Y-135763000D02*
X117984000Y-135763000D01*
X117984000Y-135763000D02*
X117984000Y-149733000D01*
X117984000Y-149733000D02*
X104014000Y-149733000D01*
X104014000Y-149733000D02*
X104014000Y-135763000D01*
D13*
X113714200Y-141798000D02*
G75*
G03*
X113714200Y-141798000I-100000J0D01*
G01*
D10*
%TO.C,U6*%
X129399000Y-122238000D02*
X130084000Y-122238000D01*
X129399000Y-123083000D02*
X129399000Y-122238000D01*
X129399000Y-125158000D02*
X129399000Y-124313000D01*
X130084000Y-125158000D02*
X129399000Y-125158000D01*
D11*
X120524000Y-114173000D02*
X139574000Y-114173000D01*
X139574000Y-114173000D02*
X139574000Y-133223000D01*
X139574000Y-133223000D02*
X120524000Y-133223000D01*
X120524000Y-133223000D02*
X120524000Y-114173000D01*
D12*
X123064000Y-116713000D02*
X137034000Y-116713000D01*
X137034000Y-116713000D02*
X137034000Y-130683000D01*
X137034000Y-130683000D02*
X123064000Y-130683000D01*
X123064000Y-130683000D02*
X123064000Y-116713000D01*
D13*
X132764200Y-122748000D02*
G75*
G03*
X132764200Y-122748000I-100000J0D01*
G01*
D10*
%TO.C,U11*%
X167499000Y-103188000D02*
X168184000Y-103188000D01*
X167499000Y-104033000D02*
X167499000Y-103188000D01*
X167499000Y-106108000D02*
X167499000Y-105263000D01*
X168184000Y-106108000D02*
X167499000Y-106108000D01*
D11*
X158624000Y-95123000D02*
X177674000Y-95123000D01*
X177674000Y-95123000D02*
X177674000Y-114173000D01*
X177674000Y-114173000D02*
X158624000Y-114173000D01*
X158624000Y-114173000D02*
X158624000Y-95123000D01*
D12*
X161164000Y-97663000D02*
X175134000Y-97663000D01*
X175134000Y-97663000D02*
X175134000Y-111633000D01*
X175134000Y-111633000D02*
X161164000Y-111633000D01*
X161164000Y-111633000D02*
X161164000Y-97663000D01*
D13*
X170864200Y-103698000D02*
G75*
G03*
X170864200Y-103698000I-100000J0D01*
G01*
D10*
%TO.C,U5*%
X129399000Y-103188000D02*
X130084000Y-103188000D01*
X129399000Y-104033000D02*
X129399000Y-103188000D01*
X129399000Y-106108000D02*
X129399000Y-105263000D01*
X130084000Y-106108000D02*
X129399000Y-106108000D01*
D11*
X120524000Y-95123000D02*
X139574000Y-95123000D01*
X139574000Y-95123000D02*
X139574000Y-114173000D01*
X139574000Y-114173000D02*
X120524000Y-114173000D01*
X120524000Y-114173000D02*
X120524000Y-95123000D01*
D12*
X123064000Y-97663000D02*
X137034000Y-97663000D01*
X137034000Y-97663000D02*
X137034000Y-111633000D01*
X137034000Y-111633000D02*
X123064000Y-111633000D01*
X123064000Y-111633000D02*
X123064000Y-97663000D01*
D13*
X132764200Y-103698000D02*
G75*
G03*
X132764200Y-103698000I-100000J0D01*
G01*
%TD*%
M02*
